<?xml version="1.0" standalone="no"?>
<!DOCTYPE svg PUBLIC "-//W3C//DTD SVG 20010904//EN"
 "http://www.w3.org/TR/2001/REC-SVG-20010904/DTD/svg10.dtd">
<svg version="1.0" xmlns="http://www.w3.org/2000/svg"
 width="640.000000pt" height="640.000000pt" viewBox="0 0 640.000000 640.000000"
 preserveAspectRatio="xMidYMid meet">
<metadata>
Created by potrace 1.14, written by Peter Selinger 2001-2017
</metadata>
<g transform="translate(0.000000,640.000000) scale(0.100000,-0.100000)"
fill="#000000" stroke="none">
<path d="M3219 5734 c-81 -12 -235 -51 -296 -75 -15 -6 -95 -12 -178 -14 -82
-1 -188 -8 -235 -14 -391 -54 -757 -235 -1027 -509 -70 -71 -158 -172 -186
-212 -146 -211 -227 -355 -300 -535 -44 -108 -112 -306 -121 -355 -3 -14 -12
-54 -21 -90 -18 -71 -40 -188 -50 -263 -4 -27 -8 -58 -10 -69 -10 -48 -18
-223 -19 -363 0 -195 13 -366 38 -500 2 -11 7 -40 11 -65 4 -25 12 -62 17 -83
11 -36 10 -38 -28 -72 -21 -19 -47 -34 -57 -35 -9 0 -25 -4 -35 -9 -27 -15
-82 -37 -154 -64 -36 -14 -77 -32 -90 -40 -30 -19 -163 -40 -208 -33 -101 15
-176 17 -200 4 -31 -17 -70 -74 -70 -103 0 -46 31 -122 67 -161 39 -43 122
-95 243 -155 25 -12 86 -28 135 -35 50 -6 106 -17 125 -23 37 -12 339 -19 356
-9 5 4 45 8 89 9 43 1 100 9 127 16 l49 15 38 -35 c20 -18 51 -42 68 -52 31
-18 33 -24 49 -115 34 -193 166 -473 273 -581 31 -30 83 -68 116 -85 52 -25
71 -29 145 -29 72 0 93 4 135 26 57 29 116 99 136 162 16 52 22 246 10 318 -5
30 -12 78 -15 107 l-5 53 32 -21 c45 -30 162 -85 251 -118 70 -26 77 -31 102
-77 78 -147 204 -299 278 -335 63 -30 146 -41 213 -29 58 11 125 46 141 75 7
12 17 2 50 -54 62 -104 156 -227 225 -295 152 -147 270 -185 423 -135 79 26
152 87 184 154 29 62 28 130 -3 284 -35 168 -38 196 -38 262 1 65 31 151 64
180 67 59 188 79 257 44 58 -30 69 -46 169 -239 116 -224 200 -319 357 -407
155 -87 389 46 386 219 0 29 -16 84 -42 150 -33 80 -110 318 -110 338 0 2 44
-30 98 -71 276 -208 452 -276 640 -245 206 32 400 234 447 466 20 96 9 362
-19 488 -24 110 -41 174 -65 255 -16 52 -32 127 -35 165 -10 128 -49 302 -111
492 -46 144 -161 444 -216 561 -16 35 -29 65 -29 68 0 3 -17 35 -39 73 l-38
68 59 47 c50 40 120 119 284 322 34 41 37 45 180 199 146 158 168 193 161 256
-10 84 -82 148 -178 156 -77 7 -108 -5 -237 -96 -62 -44 -147 -94 -190 -111
-171 -72 -256 -124 -352 -220 l-48 -48 -49 72 c-158 233 -431 500 -772 756
-18 14 -45 35 -59 46 -58 46 -202 134 -297 182 -347 174 -694 243 -996 196z"/>
</g>
</svg>
